# xmcd
#
# Track frame offsets: 
#        150
#        15938
#        39260
#        56640
#        88954
#        111071
#        132446
#        158890
#        179018
#        204917
#        226565
#        241064
#        262897
#        283074
#        300434
#        324285
#        343599
#
# Disc length: 4789 seconds
#
# Revision: 1
# Processed by: cddbd v1.5.2PL0 Copyright (c) Steve Scherf et al.
# Submitted via: ExactAudioCopy v1.3
#
DISCID=d712b311
DTITLE=Various Artist - Akella Present - vol.42 -  Modern Electric Bl
DTITLE=ues  CD2
DYEAR=2014
DGENRE=Blues
TTITLE0=Nobby Reed Project - Heavy Heart
TTITLE1=Jon Zeeman - Down On My Luck
TTITLE2=Philipp Fankhauser - Love Man Riding
TTITLE3=Snowy White and White Flames - Looking For Somebody
TTITLE4=Wayne Perkins - Big Stratocaster
TTITLE5=Kenny Acosta - The Thrill Is Gone
TTITLE6=Mark May Band - Drifter
TTITLE7=George Thorogood and The Destroyers - Madison Blues
TTITLE8=Blues Merchants - Porpoise Blues
TTITLE9=John Lawton - Try A Little Tenderness
TTITLE10=Rudy Rotta  Band - She's a woman
TTITLE11=Dr. Wu' ...and Friends - Slow Rollin' Train (Movie Version)
TTITLE12=Shane Dwight - Call Me
TTITLE13=Bleeding Harp - Don`t Ask Me
TTITLE14=JP Stingray - Goodby Hurricane
TTITLE15=Gentlemen's Blues Club - Longhorn Honeymoon
TTITLE16=Mark Knopfler - Bluebird
EXTD=
EXTT0=
EXTT1=
EXTT2=
EXTT3=
EXTT4=
EXTT5=
EXTT6=
EXTT7=
EXTT8=
EXTT9=
EXTT10=
EXTT11=
EXTT12=
EXTT13=
EXTT14=
EXTT15=
EXTT16=
PLAYORDER=
